<svg width="8600" height="4600" viewBox="0 0 8600 4600" fill="none" xmlns="http://www.w3.org/2000/svg">
<path d="M7250 600H7850V0H8000V600H8600V750H8000V1340H8600V1490H8000V4600H0V600H7100V0H7250V600ZM1256.76 2395H1081.76V3439.75H1256.76V3616.5H2651.51V2745H1606.76V3091.5H2306.76V3270H1428.26V2566.5H2651.51V2220H1256.76V2395ZM2831.07 2566.5H4056.07V2745H2831.07V3616.5H3177.57V3091.5H3706.07V3264.75H3881.07V3439.75H4056.07V3616.5H4402.57V3271.75H4225.82V2916.5H4402.57V2396.75H4227.57V2220H2831.07V2566.5ZM4580.39 3616.5H4926.89V2221.75H4580.39V3616.5ZM5105.39 2566.5H6330.39V3270H5451.89V2745H5105.39V3616.5H6500.14V3441.5H6676.89V2396.75H6501.89V2220H5105.39V2566.5ZM7250 2090H7850V1490H7250V2090ZM1080.62 1480V1598.8H1260.62V1958.8H1379.42V1598.8H1558.83V1480H1080.62ZM1656.62 1480.6V1958.8H1775.42V1778.8H2076.62V1958.8H2195.42V1480.6H2076.62V1660H1775.42V1480.6H1656.62ZM2352.39 1480V1540H2292.39V1898.2H2352.39V1958.8H2830.59V1840.6H2411.19V1778.8H2710.59V1660.6H2411.19V1598.8H2830.59V1480H2352.39ZM6500 1340H7100V740H6500V1340ZM7250 1340H7850V740H7250V1340Z" fill="#BEFF1A"/>
</svg>

  